<svg width="55" height="64" viewBox="0 0 55 64" fill="none" xmlns="http://www.w3.org/2000/svg">
<circle cx="27" cy="14" r="13" fill="#FF0000" fill-opacity="0.5" stroke="black" stroke-width="2" stroke-dasharray="2 2"/>
<path d="M1 43H2V45H1V47H2V49H1V51H2V53H1V55H2V57H1V59H2V61H1V62V63H2H2.98075V62H3H4.94229V63H6.90383V62H8.86537V63H10.8269V62H12.7885V63H14.75V62H16.7115V63H18.6731V62H20.6346V63H22.5962V62H24.5577V63H26.5192V62H28.4808V63H30.4423V62H32.4038V63H34.3654V62H36.3269V63H38.2885V62H40.25V63H42.2115V62H44.1731V63H46.1346V62H48.0962V63H50.0577V62H52H52.0192V63H53H54V62V61H53V59H54V57H53V55H54V53H53V51H54V49H53V47H54V45H53V43H54V42C54 41.657 53.9867 41.3168 53.9605 40.9801L52.9635 41.0576C52.9142 40.4224 52.8154 39.801 52.671 39.1974L53.6435 38.9648C53.4836 38.2961 53.2719 37.6475 53.0132 37.0235L52.0894 37.4065C51.8474 36.8228 51.5605 36.2623 51.2332 35.7293L52.0854 35.206C51.7282 34.6243 51.3265 34.073 50.8852 33.5567L50.1251 34.2065C49.7166 33.7287 49.2713 33.2834 48.7935 32.8749L49.4433 32.1148C48.927 31.6735 48.3757 31.2718 47.794 30.9146L47.2707 31.7668C46.7377 31.4395 46.1772 31.1526 45.5935 30.9106L45.9765 29.9868C45.3525 29.7281 44.7039 29.5164 44.0352 29.3565L43.8026 30.329C43.199 30.1846 42.5776 30.0858 41.9424 30.0365L42.0199 29.0395C41.6832 29.0133 41.343 29 41 29H40.0357V30H38.1071V29H36.1786V30H34.25V29H32.3214V30H30.3929V29H28.4643V30H26.5357V29H24.6071V30H22.6786V29H20.75V30H18.8214V29H16.8929V30H14.9643V29H14C13.657 29 13.3168 29.0133 12.9801 29.0395L13.0576 30.0365C12.4224 30.0858 11.801 30.1846 11.1974 30.329L10.9648 29.3565C10.2961 29.5164 9.64753 29.7281 9.02349 29.9868L9.40655 30.9106C8.82279 31.1526 8.26227 31.4395 7.72929 31.7668L7.20599 30.9146C6.62427 31.2718 6.07296 31.6735 5.55674 32.1148L6.20654 32.8749C5.72872 33.2834 5.28338 33.7287 4.87491 34.2065L4.1148 33.5567C3.67349 34.073 3.27185 34.6243 2.91462 35.206L3.76677 35.7293C3.43947 36.2623 3.15264 36.8228 2.91057 37.4065L1.98684 37.0235C1.72806 37.6475 1.51645 38.2961 1.35648 38.9648L2.32903 39.1974C2.18461 39.801 2.08581 40.4224 2.03646 41.0576L1.03947 40.9801C1.01331 41.3168 1 41.657 1 42V43Z" fill="#FF0000" fill-opacity="0.5" stroke="black" stroke-width="2" stroke-dasharray="2 2"/>
<path d="M34 53L20 39" stroke="black" stroke-width="3"/>
<path d="M34 39L20 53" stroke="black" stroke-width="3"/>
</svg>
